<svg xmlns="http://www.w3.org/2000/svg" width="36" height="36"><path d="M 18 3.96 C 18 1.773 16.227 0 14.04 0 L 3.96 0 C 1.773 0 0 1.773 0 3.96 L 0 14.17 C 0 16.357 1.773 18.129 3.96 18.129 L 14.04 18.129 C 16.227 18.129 18 19.902 18 22.089 L 18 32.04 C 18 34.227 19.773 36 21.96 36 L 32.04 36 C 34.227 36 36 34.227 36 32.04 L 36 21.83 C 36 19.643 34.227 17.87 32.04 17.87 L 21.96 17.87 C 19.773 17.87 18 16.097 18 13.91 Z" fill="var(--token-ba0f8505-1870-43c0-8d4e-7d4bc5406462, rgb(153, 153, 153))"></path></svg>