<svg xmlns="http://www.w3.org/2000/svg" width="36" height="36"><g><path d="M 0 0 L 36 0 L 36 36 L 0 36 Z" fill="transparent"></path><path d="M 18.07 16.534 C 17.324 7.278 9.576 0 0.129 0 C 0.129 9.404 7.34 17.123 16.534 17.93 C 7.278 18.676 0 26.424 0 35.871 C 9.404 35.871 17.123 28.661 17.93 19.466 C 18.676 28.722 26.424 36 35.871 36 C 35.871 26.596 28.66 18.877 19.466 18.07 C 28.722 17.324 36 9.576 36 0.129 C 26.596 0.129 18.877 7.339 18.07 16.534 Z M 17.999 18 L 18 18.001 L 18.001 18 L 18 18 L 18 18 Z" fill="var(--token-ba0f8505-1870-43c0-8d4e-7d4bc5406462, rgb(153, 153, 153))"></path></g></svg>