<svg xmlns="http://www.w3.org/2000/svg" width="36" height="36"><path d="M 29.873 24.127 C 28.889 25.111 27.294 25.111 26.31 24.127 L 21.965 19.782 C 20.981 18.798 20.981 17.202 21.965 16.218 L 26.31 11.873 C 27.294 10.889 28.889 10.889 29.873 11.873 L 34.218 16.218 C 35.202 17.202 35.202 18.798 34.218 19.782 Z M 9.69 24.127 C 8.706 25.111 7.111 25.111 6.126 24.127 L 1.782 19.782 C 0.798 18.798 0.798 17.202 1.782 16.218 L 6.127 11.873 C 7.111 10.889 8.706 10.889 9.69 11.873 L 14.035 16.218 C 15.019 17.202 15.019 18.798 14.035 19.782 Z M 19.782 34.218 C 18.798 35.202 17.202 35.202 16.218 34.218 L 11.873 29.873 C 10.889 28.889 10.889 27.294 11.873 26.31 L 16.218 21.965 C 17.202 20.981 18.798 20.981 19.782 21.965 L 24.127 26.31 C 25.111 27.294 25.111 28.889 24.127 29.873 Z M 19.782 14.035 C 18.798 15.019 17.202 15.019 16.218 14.035 L 11.873 9.69 C 10.889 8.706 10.889 7.111 11.873 6.126 L 16.218 1.782 C 17.202 0.798 18.798 0.798 19.782 1.782 L 24.127 6.127 C 25.111 7.111 25.111 8.706 24.127 9.691 Z" fill="var(--token-ba0f8505-1870-43c0-8d4e-7d4bc5406462, rgb(153, 153, 153))"></path></svg>